<?xml version="1.0"?>
<svg width="112" height="160" xmlns="http://www.w3.org/2000/svg" xmlns:svg="http://www.w3.org/2000/svg" xmlns:xlink="http://www.w3.org/1999/xlink">
 <!-- Created with SVG-edit - https://github.com/SVG-Edit/svgedit-->
 <defs>
  <symbol height="200" id="svg_5" viewBox="0 0 139.764 200" width="139.76401" x="0px" xmlns="http://www.w3.org/2000/svg" xmlns:svg="http://www.w3.org/2000/svg" y="0px">
   <metadata id="svg_4">image/svg+xml</metadata>

   <g id="svg_2" transform="matrix(4.0331525,0,0,4.0331525,-2543.1043,-882.47797)">
    <path d="m630.55,222.39c0,-0.994 0.349,-1.842 1.046,-2.539c0.696,-0.696 1.543,-1.045 2.539,-1.045l27.483,0c0.995,0 1.843,0.349 2.54,1.045c0.695,0.697 1.045,1.545 1.045,2.539l0,42.42c0,0.995 -0.35,1.842 -1.045,2.539c-0.697,0.696 -1.545,1.046 -2.54,1.046l-27.483,0c-0.996,0 -1.843,-0.35 -2.539,-1.046c-0.697,-0.697 -1.046,-1.544 -1.046,-2.539m1.793,0c0,0.518 0.169,0.945 0.508,1.285c0.338,0.338 0.766,0.508 1.284,0.508l27.483,0c0.518,0 0.946,-0.17 1.284,-0.508c0.338,-0.34 0.508,-0.768 0.508,-1.285l0,-42.42c0,-0.518 -0.17,-0.945 -0.508,-1.284c-0.338,-0.338 -0.767,-0.508 -1.284,-0.508l-27.483,0c-0.519,0 -0.946,0.17 -1.284,0.508c-0.339,0.339 -0.508,0.767 -0.508,1.284" id="svg_3"/>
   </g>
  </symbol>
 </defs>
 <g class="layer">
  <title>Layer 1</title>
  <g id="svg_7"/>
  <rect fill="#e79c44" height="149.262886" id="svg_8" stroke="#000000" stroke-width="0" width="101.905397" x="4.240912" y="5.325351"/>
  <use id="svg_6" transform="matrix(0.8 0 0 0.8 0 0)" x="0" xlink:href="#svg_5" y="0"/>
 </g>
</svg>